<svg xmlns="http://www.w3.org/2000/svg" width="130" height="40">
  <path d="M3.8 39.7c-1-.2-1.6-.6-2.4-1.4A4 4 0 010 35c0-1 .1-1.4.4-2a5.7 5.7 0 012.7-2.6l.9-.3h122.4l.8.5a5 5 0 01-.3 9l-.8.3H65.3c-52.8 0-60.8 0-61.5-.2z" fill="#dadce0" fill-opacity="0" stroke="#1a73e8" stroke-width=".4" stroke-opacity="0"/>
  <path d="M3.6 39.6c-.4-.1-1-.6-1.5-1a4.8 4.8 0 01.9-8l1-.5h61c45.6 0 61.1 0 61.7.2.5.2 1.2.6 1.6 1 2.9 2.4 2 7-1.6 8.3-1 .4-122 .4-123.1 0z" fill="#dadce0" stroke-width=".6" stroke-opacity="0"/>
  <path d="M76.4 5.3a11.4 11.4 0 100 16.1L74 19l-.3-.3a7.6 7.6 0 01-13-5.3 7.6 7.6 0 0113-5.4l.3-.3z" fill="none" stroke="#fff" stroke-width="3.8"/>
  <path d="M76.4 5.3a11.4 11.4 0 100 16.1L74 19l-.3-.3a7.6 7.6 0 01-13-5.3 7.6 7.6 0 0113-5.4l.3-.3z" fill="#334982"/>
  <path d="M68.3 9.6a3.8 3.8 0 110 7.6 3.8 3.8 0 010-7.6z" fill="none" stroke="#fff" stroke-width="7.6"/>
  <path d="M68.3 9.6a3.8 3.8 0 110 7.6 3.8 3.8 0 010-7.6z" fill="#d63557"/>
</svg>