<svg xmlns="http://www.w3.org/2000/svg" width="272" height="92">
  <path d="M168.3 18.8a38.5 38.5 0 100 54.4l-8.2-8.1-1-1a25.7 25.7 0 01-44-18 25.7 25.7 0 0144-18.2l1-1z" fill="none" stroke="#fff" stroke-width="12.848446"/>
  <path d="M168.3 18.8a38.5 38.5 0 100 54.4l-8.2-8.1-1-1a25.7 25.7 0 01-44-18 25.7 25.7 0 0144-18.2l1-1z" fill="#334982"/>
  <path d="M140.9 33.3a12.8 12.8 0 110 25.7 12.8 12.8 0 010-25.7z" fill="none" stroke="#fff" stroke-width="25.696892"/>
  <path d="M140.9 33.3a12.8 12.8 0 110 25.7 12.8 12.8 0 010-25.7z" fill="#d63557"/>
</svg>