/* XPM */
static char *product_logo_32[] = {
/* columns rows colors chars-per-pixel */
"32 32 204 2 ",
"   c #253C79",
".  c #253D79",
"X  c #253D7A",
"o  c #263E7A",
"O  c #273E7A",
"+  c #273E7B",
"@  c #283F7B",
"#  c #28407B",
"$  c #29407B",
"%  c #28407C",
"&  c #29407C",
"*  c #29417C",
"=  c #2A417C",
"-  c #2A417D",
";  c #2B427D",
":  c #2B427E",
">  c #2C437E",
",  c #2D437E",
"<  c #2D447E",
"1  c #2D447F",
"2  c #2E447F",
"3  c #2E457F",
"4  c #2F457F",
"5  c #D31746",
"6  c #D31846",
"7  c #D31847",
"8  c #D41847",
"9  c #D41948",
"0  c #D41B49",
"q  c #D41C4A",
"w  c #D41E4B",
"e  c #D41E4C",
"r  c #D5204E",
"t  c #D5214E",
"y  c #D5224E",
"u  c #D5224F",
"i  c #D52350",
"p  c #D62451",
"a  c #D62652",
"s  c #D62954",
"d  c #D72954",
"f  c #D72955",
"g  c #D72A55",
"h  c #D72D57",
"j  c #D8305A",
"k  c #D8315B",
"l  c #DD4A6F",
"z  c #DD4C70",
"x  c #DF5476",
"c  c #DF5678",
"v  c #2F4580",
"b  c #2F4680",
"n  c #304680",
"m  c #314780",
"M  c #314781",
"N  c #324781",
"B  c #314881",
"V  c #324881",
"C  c #324882",
"Z  c #334882",
"A  c #334982",
"S  c #344982",
"D  c #344A83",
"F  c #354B83",
"G  c #364C84",
"H  c #374C84",
"J  c #384D85",
"K  c #384E85",
"L  c #3A4F86",
"P  c #3B5087",
"I  c #3C5187",
"U  c #3D5188",
"Y  c #3D5288",
"T  c #3F5389",
"R  c #40548A",
"E  c #43578C",
"W  c #45598D",
"Q  c #465A8E",
"!  c #475B8E",
"~  c #485C8F",
"^  c #495C8F",
"/  c #495D8F",
"(  c #4A5E90",
")  c #4C5F91",
"_  c #4C6092",
"`  c #4E6192",
"'  c #506394",
"]  c #516495",
"[  c #546796",
"{  c #596B9A",
"}  c #5D6F9C",
"|  c #5F709D",
" . c #62739F",
".. c #63739F",
"X. c #6374A0",
"o. c #6475A0",
"O. c #6575A0",
"+. c #6576A1",
"@. c #6777A2",
"#. c #6878A2",
"$. c #697AA3",
"%. c #6A7AA3",
"&. c #6A7AA4",
"*. c #6B7BA4",
"=. c #7281A9",
"-. c #7382A9",
";. c #7988AD",
":. c #7A88AD",
">. c #8491B4",
",. c #8894B6",
"<. c #8996B7",
"1. c #8B98B8",
"2. c #8F9BBA",
"3. c #909CBB",
"4. c #929EBC",
"5. c #94A0BE",
"6. c #96A1BE",
"7. c #E7819A",
"8. c #E988A0",
"9. c #EB97AC",
"0. c #EC98AD",
"q. c #EC9BAF",
"w. c #ED9EB1",
"e. c #ED9FB2",
"r. c #EEA2B5",
"t. c #EEA3B6",
"y. c #EFAABB",
"u. c #A8B1CA",
"i. c #AAB3CB",
"p. c #ABB4CC",
"a. c #ADB6CD",
"s. c #AEB7CD",
"d. c #AEB7CE",
"f. c #B1BACF",
"g. c #B1BAD0",
"h. c #B2BAD0",
"j. c #B3BCD1",
"k. c #B4BCD1",
"l. c #B5BDD1",
"z. c #B5BDD2",
"x. c #B6BED2",
"c. c #B7BFD3",
"v. c #F0B0C0",
"b. c #F1B4C3",
"n. c #F3BDCB",
"m. c #BAC1D5",
"M. c #BAC2D5",
"N. c #BCC3D5",
"B. c #BCC3D6",
"V. c #C0C7D9",
"C. c #C2C9DA",
"Z. c #C4CBDB",
"A. c #C9CEDE",
"S. c #CACFDE",
"D. c #F3C1CE",
"F. c #CED3E1",
"G. c #D2D7E4",
"H. c #D5D9E5",
"J. c #D6DBE6",
"K. c #D7DCE6",
"L. c #D9DDE7",
"P. c #DADEE8",
"I. c #DBDFE8",
"U. c #F8DAE2",
"Y. c #F9DEE5",
"T. c #F9DFE5",
"R. c #DCE0E9",
"E. c #DCE0EA",
"W. c #DDE0EA",
"Q. c #DDE1EA",
"!. c #DFE3EC",
"~. c #E0E3EB",
"^. c #E0E3EC",
"/. c #E1E4EC",
"(. c #E1E4ED",
"). c #E1E5ED",
"_. c #E3E6EE",
"`. c #E4E7EE",
"'. c #E5E8EF",
"]. c #FAE3E9",
"[. c #FAE5EA",
"{. c #E8EAF0",
"}. c #EAECF2",
"|. c #ECEEF3",
" X c #FCEEF1",
".X c #FCEEF2",
"XX c #EEF0F4",
"oX c #F2F3F7",
"OX c #F4F5F8",
"+X c #F6F7FA",
"@X c #F7F7FA",
"#X c #F7F8FA",
"$X c #F8F9FB",
"%X c #FAFAFC",
"&X c #FAFBFC",
"*X c #FBFBFC",
"=X c #FBFCFC",
"-X c #FCFDFD",
";X c #FDFDFE",
":X c #FEFEFE",
">X c #FEFEFF",
",X c #FEFFFF",
"<X c gray100",
"1X c None",
/* pixels */
"1X1X1X1X1X1X1X1X1X1X1X1X1X1X<X<X<X<X<X<X<X1X1X1X1X1X1X1X1X1X1X1X",
"1X1X1X1X1X1X1X1X1X1X1X<X<X<X<X<X<X<X<X<X<X<X<X<X1X1X1X1X1X1X1X1X",
"1X1X1X1X1X1X1X1X1X<X<X<X<X`.c.4.;.=.;.3.c.!.<X<X<X<X1X1X1X1X1X1X",
"1X1X1X1X1X1X1X1X<X<X<XC.$.J =   @ = =   $ D +.B.<X<X<X1X1X1X1X1X",
"1X1X1X1X1X1X<X<X<X_.$.@ = N V V V F V V V V @ @  .P.<X<X<X1X1X1X",
"1X1X1X1X1X1X<X<XB.Y   F V V F N b = b V D V V D @ F j.<X<X<X1X1X",
"1X1X1X1X1X<X<Xc.b = D V V = @ J ) [ ` J = = V V F   ! @X<X<X1X1X",
"1X1X1X1X<X<XF.N b D V b = | a._.@X*X$X'.j.X.= b @ ! W.<X<X1X1X1X",
"1X1X1X<X<XOX` = V V 4 G a.<X<X<X<X<X<X<X<X<Xc.J E W.<X<X1X1X1X1X",
"1X1X1X<X<X4.  V D b Y G.<X<X<X<X<X<X<X<X<X<X<XJ.L.<X<X1X1X1X1X1X",
"1X1X1X<XXXT b D V b Z.<X<X<X<X<X<X<X<X<X<X<X<X<X<X<X1X1X1X1X1X1X",
"1X1X<X<Xp.+ V V @ >.<X<X<X<X<X].r.8.w.T.<X<X<X<X<X<X1X1X1X1X1X1X",
"1X1X<X<X*.= D V F ~.<X<X<X<Xy.h 7 7 7 g w.<X<X<X<X<X1X1X1X1X1X1X",
"1X1X<X#X~ 4 V = +.<X<X<X<XD.q r a a a r 8 b.<X<X<X<X1X1X1X1X1X1X",
"1X<X<X'.G V V + 5.<X<X<X<Xc q a a a a a q z <X<X<X<X<X1X1X1X1X1X",
"1X<X<XP.V V V = p.<X<X<X.Xk i a a a a a a g [.<X<X<X<X1X1X1X1X1X",
"1X<X<XP.B V V = p.<X<X<X Xj i a a a a a a g [.<X<X<X<X1X1X1X1X1X",
"1X<X<X`.G V D + 5.<X<X<X<Xx q a a a a a q l <X<X<X<X<X1X1X1X1X1X",
"1X1X<X@X! b D = @.<X<X<X<Xn.0 r a a a r 7 v.<X<X<X<X1X1X1X1X1X1X",
"1X1X<X<X*.= V V F _.<X<X<X<Xr.g 7 8 7 a 9.<X<X<X<X<X1X1X1X1X1X1X",
"1X1X<X<Xu.# V D   <.<X<X<X<X<XY.q.7.0.U.<X<X<X<X<X<X1X1X1X1X1X1X",
"1X1X1X<X}.P b V V V A.<X<X<X<X<X<X<X<X<X<X<X<X<X<X<X1X1X1X1X1X1X",
"1X1X1X<X<X2.  V V b T K.<X<X<X<X<X<X<X<X<X<X<XL.W.<X<X1X1X1X1X1X",
"1X1X1X<X<XOX( v V V > P j.<X<X<X<X<X<X<X<X<XB.Y ! _.<X<X1X1X1X1X",
"1X1X1X1X<X<XA.N 4 V V b = X.c.{.*X<X&X}.m.#.= b @ ~ _.<X<X1X1X1X",
"1X1X1X1X1X<X<Xf.4 4 V D V = % P ' { ] Y = = N V V   ~ @X<X<X1X1X",
"1X1X1X1X1X<X<X<Xm.G = V V D V b > = = b D V V F = V p.<X<X<X1X1X",
"1X1X1X1X1X1X<X<X<XW.X.@ = V D V D D D V D N =   | J.<X<X<X1X1X1X",
"1X1X1X1X1X1X1X1X<X<X<Xm.X.F =   = = @ +   F  .j.*X<X<X<X1X1X1X1X",
"1X1X1X1X1X1X1X1X1X<X<X<X<X!.f.1.=.*.=.<.a.W.<X<X<X<X1X1X1X1X1X1X",
"1X1X1X1X1X1X1X1X1X1X1X<X<X<X<X<X<X<X<X<X<X<X<X<X1X1X1X1X1X1X1X1X",
"1X1X1X1X1X1X1X1X1X1X1X1X1X1X<X<X<X<X<X<X<X<X1X1X1X1X1X1X1X1X1X1X"
};
